<?xml version="1.0" encoding="utf-8"?>
<!-- Generator: Adobe Illustrator 21.0.2, SVG Export Plug-In . SVG Version: 6.00 Build 0)  -->
<svg version="1.1" id="Layer_1" xmlns="http://www.w3.org/2000/svg" xmlns:xlink="http://www.w3.org/1999/xlink" x="0px" y="0px"
	 viewBox="0 0 595.3 595.3" style="enable-background:new 0 0 595.3 595.3;" xml:space="preserve">
<style type="text/css">
	.st0{clip-path:url(#SVGID_2_);fill:none;stroke:#435464;stroke-width:2.637;stroke-miterlimit:10;}
	.st1{clip-path:url(#SVGID_2_);fill:#435464;}
</style>
<g>
	<defs>
		<rect id="SVGID_1_" width="595.3" height="595.3"/>
	</defs>
	<clipPath id="SVGID_2_">
		<use xlink:href="#SVGID_1_"  style="overflow:visible;"/>
	</clipPath>
	<path class="st0" d="M346.3,238.1c-8.8-7.2-14.5-18.1-14.5-30.4c0-12.3,5.6-23.2,14.5-30.4 M282.6,207.7
		c0-21.6,17.5-39.1,39.1-39.1c21.6,0,39.1,17.5,39.1,39.1c0,21.6-17.5,39.1-39.1,39.1C300.1,246.8,282.6,229.3,282.6,207.7z
		 M233.3,207.7h127.5 M297.1,238.1c-8.8-7.2-14.5-18.1-14.5-30.4c0-12.3,5.6-23.2,14.5-30.4 M247.8,177.3
		c8.8,7.2,14.5,18.1,14.5,30.4c0,12.3-5.6,23.2-14.5,30.4 M233.3,207.7c0-21.6,17.5-39.1,39.1-39.1s39.1,17.5,39.1,39.1
		c0,21.6-17.5,39.1-39.1,39.1S233.3,229.3,233.3,207.7z"/>
	<path class="st1" d="M358,369.3h1.1v-9.9h0l6.9,9.9h1.4V358h-1.1v9.9h0l-6.9-9.9H358V369.3z M345.3,361.7c0.2-0.6,0.5-1.1,1-1.6
		c0.4-0.4,0.9-0.8,1.5-1.1c0.6-0.3,1.3-0.4,2-0.4c0.7,0,1.4,0.1,2,0.4c0.6,0.3,1.1,0.6,1.5,1.1c0.4,0.4,0.7,1,1,1.6
		c0.2,0.6,0.3,1.3,0.3,2s-0.1,1.4-0.3,2c-0.2,0.6-0.5,1.1-1,1.6c-0.4,0.4-0.9,0.8-1.5,1.1c-0.6,0.3-1.3,0.4-2,0.4
		c-0.7,0-1.4-0.1-2-0.4c-0.6-0.3-1.1-0.6-1.5-1.1c-0.4-0.4-0.7-1-1-1.6c-0.2-0.6-0.3-1.3-0.3-2S345.1,362.3,345.3,361.7 M344.4,366
		c0.3,0.7,0.7,1.4,1.2,1.9c0.5,0.5,1.1,0.9,1.8,1.2c0.7,0.3,1.5,0.4,2.4,0.4s1.7-0.1,2.4-0.4c0.7-0.3,1.3-0.7,1.8-1.2
		c0.5-0.5,0.9-1.2,1.2-1.9c0.3-0.7,0.4-1.5,0.4-2.4c0-0.9-0.1-1.7-0.4-2.4c-0.3-0.7-0.7-1.4-1.2-1.9c-0.5-0.5-1.1-0.9-1.8-1.2
		c-0.7-0.3-1.5-0.4-2.4-0.4s-1.7,0.1-2.4,0.4c-0.7,0.3-1.3,0.7-1.8,1.2c-0.5,0.5-0.9,1.2-1.2,1.9c-0.3,0.7-0.4,1.5-0.4,2.4
		C343.9,364.5,344.1,365.3,344.4,366 M340.5,369.3h1.1V358h-1.1V369.3z M333.8,369.3h1.1v-10.4h3.9v-1H330v1h3.9V369.3z M328,365.3
		h-5.2l2.6-6.2L328,365.3z M320,369.3h1.1l1.3-3h6l1.2,3h1.2L326,358h-1.1L320,369.3z M318.6,358h-1.1v6.7c0,0.4,0,0.8-0.1,1.3
		c-0.1,0.5-0.2,0.9-0.4,1.3c-0.2,0.4-0.5,0.7-0.9,1c-0.4,0.3-0.9,0.4-1.6,0.4c-0.7,0-1.2-0.1-1.6-0.4c-0.4-0.3-0.7-0.6-0.9-1
		c-0.2-0.4-0.4-0.8-0.4-1.3c-0.1-0.5-0.1-0.9-0.1-1.3V358h-1.1v7c0,0.6,0.1,1.2,0.2,1.7c0.1,0.6,0.4,1,0.7,1.5
		c0.3,0.4,0.8,0.8,1.3,1c0.5,0.3,1.2,0.4,1.9,0.4s1.4-0.1,1.9-0.4c0.5-0.3,1-0.6,1.3-1c0.3-0.4,0.6-0.9,0.7-1.5
		c0.1-0.6,0.2-1.1,0.2-1.7V358z M298.1,369.3h1.1v-9.9h0l6.9,9.9h1.4V358h-1.1v9.9h0l-6.9-9.9h-1.4V369.3z M285.7,369.3h1.1v-9.9h0
		l6.9,9.9h1.4V358H294v9.9h0L287,358h-1.4V369.3z M281.2,365.3h-5.2l2.6-6.2L281.2,365.3z M273.3,369.3h1.1l1.3-3h6l1.2,3h1.2
		l-4.8-11.3h-1.1L273.3,369.3z M265.2,369.3h1.1v-5.4h2l3.2,5.4h1.2l-3.3-5.4c0.3,0,0.6-0.1,1-0.2c0.3-0.1,0.7-0.3,0.9-0.5
		c0.3-0.2,0.5-0.5,0.7-0.9c0.2-0.4,0.3-0.8,0.3-1.3c0-0.5-0.1-0.9-0.2-1.2c-0.2-0.3-0.4-0.6-0.6-0.8c-0.2-0.2-0.5-0.4-0.8-0.5
		c-0.3-0.1-0.6-0.2-0.9-0.3c-0.3-0.1-0.6-0.1-0.8-0.1c-0.3,0-0.5,0-0.6,0h-3V369.3z M266.3,358.9h2.2c0.6,0,1,0.1,1.4,0.2
		c0.3,0.1,0.6,0.3,0.8,0.5c0.2,0.2,0.3,0.4,0.4,0.7c0.1,0.2,0.1,0.4,0.1,0.6s0,0.4-0.1,0.6c-0.1,0.2-0.2,0.5-0.4,0.7
		c-0.2,0.2-0.5,0.4-0.8,0.5c-0.3,0.1-0.8,0.2-1.4,0.2h-2.2V358.9z M255.8,369.3h7.2v-1h-6.1v-4.4h5.5v-1h-5.5v-4h5.9v-1h-6.9V369.3z
		 M247.7,358.9h2.3c0.3,0,0.6,0,0.9,0.1c0.3,0.1,0.6,0.2,0.8,0.4c0.2,0.2,0.4,0.4,0.6,0.6c0.1,0.3,0.2,0.6,0.2,0.9
		c0,0.4-0.1,0.7-0.2,0.9c-0.1,0.3-0.3,0.5-0.5,0.6c-0.2,0.2-0.5,0.3-0.8,0.3c-0.3,0.1-0.6,0.1-0.9,0.1h-2.4V358.9z M246.6,369.3h1.1
		v-5.4h2.4c0.4,0,0.9-0.1,1.3-0.2c0.4-0.1,0.8-0.3,1.1-0.5c0.3-0.2,0.6-0.5,0.8-0.9c0.2-0.4,0.3-0.8,0.3-1.3c0-0.6-0.1-1.1-0.3-1.5
		c-0.2-0.4-0.5-0.7-0.9-0.9c-0.4-0.2-0.8-0.4-1.2-0.5c-0.4-0.1-0.8-0.1-1.2-0.1h-3.3V369.3z M243.7,358h-1.1v6.7
		c0,0.4,0,0.8-0.1,1.3c-0.1,0.5-0.2,0.9-0.4,1.3c-0.2,0.4-0.5,0.7-0.9,1c-0.4,0.3-0.9,0.4-1.6,0.4c-0.7,0-1.2-0.1-1.6-0.4
		c-0.4-0.3-0.7-0.6-0.9-1c-0.2-0.4-0.4-0.8-0.4-1.3c-0.1-0.5-0.1-0.9-0.1-1.3V358h-1.1v7c0,0.6,0.1,1.2,0.2,1.7
		c0.1,0.6,0.4,1,0.7,1.5c0.3,0.4,0.8,0.8,1.3,1c0.5,0.3,1.2,0.4,1.9,0.4s1.4-0.1,1.9-0.4c0.5-0.3,1-0.6,1.3-1
		c0.3-0.4,0.6-0.9,0.7-1.5c0.1-0.6,0.2-1.1,0.2-1.7V358z M226.1,367.9c0.4,0.6,1,1.1,1.6,1.3c0.6,0.3,1.3,0.4,2.1,0.4
		c0.5,0,0.9-0.1,1.3-0.2c0.4-0.1,0.8-0.3,1.1-0.6c0.3-0.3,0.6-0.6,0.8-1c0.2-0.4,0.3-0.8,0.3-1.4c0-0.7-0.1-1.3-0.4-1.7
		c-0.3-0.4-0.6-0.7-1.1-0.9c-0.4-0.2-0.9-0.4-1.4-0.5c-0.5-0.1-1-0.3-1.4-0.5c-0.4-0.2-0.8-0.4-1.1-0.7c-0.3-0.3-0.4-0.7-0.4-1.3
		c0-0.4,0.1-0.7,0.2-0.9c0.1-0.3,0.3-0.5,0.6-0.7c0.2-0.2,0.5-0.3,0.8-0.4c0.3-0.1,0.6-0.1,1-0.1c0.5,0,0.9,0.1,1.3,0.3
		c0.4,0.2,0.7,0.5,0.9,0.8l0.9-0.7c-0.4-0.5-0.8-0.9-1.4-1.1c-0.5-0.2-1.1-0.3-1.7-0.3c-0.5,0-0.9,0.1-1.4,0.2s-0.8,0.3-1.2,0.6
		c-0.3,0.3-0.6,0.6-0.8,1c-0.2,0.4-0.3,0.8-0.3,1.3c0,0.5,0.1,1,0.2,1.3c0.2,0.4,0.4,0.7,0.7,0.9c0.3,0.2,0.6,0.4,0.9,0.6
		c0.3,0.1,0.7,0.3,1.1,0.4c0.4,0.1,0.7,0.2,1.1,0.4c0.3,0.1,0.7,0.3,0.9,0.4c0.3,0.2,0.5,0.4,0.7,0.6s0.2,0.6,0.2,1
		c0,0.3-0.1,0.6-0.2,0.9c-0.1,0.3-0.3,0.5-0.5,0.7c-0.2,0.2-0.5,0.3-0.8,0.4c-0.3,0.1-0.6,0.2-1,0.2c-0.6,0-1.1-0.1-1.5-0.4
		c-0.4-0.2-0.8-0.6-1.1-1.1L226.1,367.9z"/>
	<path class="st1" d="M425.3,295.9v37c0,5.1,2,8.6,5.8,10.5c2,1,4.3,1.5,7,1.5c4.7,0,8.7-1.7,12-5.2c1.9-2,3.5-4.5,4.8-7.6l-2.7-1.3
		c-1,1.9-2,3.3-3,4.4c-1,1.1-2.2,1.6-3.7,1.6c-1.7,0-2.9-0.8-3.7-2.5c-0.5-1.1-0.7-2.4-0.7-4v-34.3h10.9v-5H441v-19.3h-2.9
		c-2.8,4.3-6,8.4-9.4,12.2c-1.7,1.9-3.6,3.8-5.6,5.6c-1.5,1.3-2.7,2.4-3.7,3.3v3.2H425.3z M396.3,289.5c-8.2,0-14.8,2.8-19.7,8.4
		c-4.9,5.6-7.4,12.4-7.4,20.3c0,7.5,2.3,13.9,7,19.2c4.6,5.2,10.6,7.9,17.9,7.9c3,0,5.8-0.5,8.4-1.5c5-1.9,9.3-5.5,13-10.6l-2.1-2
		c-1.9,2.1-3.4,3.5-4.7,4.3c-2.1,1.3-4.7,2-7.7,2c-4.8,0-8.6-2.4-11.4-7.2c-2.8-4.8-4.2-10.8-4.2-17.9c0-5,0.7-9.5,2.2-13.3
		c1.5-3.9,4-5.8,7.5-5.8c1.2,0,2.3,0.4,3.3,1.1c0.9,0.7,1.4,2.1,1.4,4.1c0,0.7,0,1.4-0.1,2.1c0,0.6-0.1,1.1-0.1,1.5
		c0,3.1,1,5.3,3.1,6.5c1.1,0.7,2.3,1,3.8,1c2.2,0,3.9-0.7,5.3-2.2c1.4-1.4,2.1-3.2,2.1-5.1c0-3.7-1.8-6.7-5.3-9
		C405.2,290.6,401.1,289.5,396.3,289.5 M334.6,311.2c0.1-5.9,0.8-10.4,1.9-13.5c1.1-3.1,3.1-4.6,6.1-4.6c2.9,0,4.8,1.3,5.8,4
		c1,2.7,1.5,7.4,1.6,14.1H334.6z M318.7,317.3c0,9.7,2.5,16.8,7.4,21.2c4.9,4.4,10.2,6.6,15.8,6.6c3.9,0,7.4-0.7,10.4-2.2
		c4.7-2.3,8.7-6.3,12.3-12.1l-2.6-1.6c-2.2,2.4-4,4.1-5.4,5.1c-2.4,1.7-4.9,2.5-7.6,2.5c-5.6,0-9.6-3.1-11.8-9.4
		c-1.2-3.3-2-7.3-2.2-11.9H364c0-1-0.1-2.5-0.4-4.5c-0.5-4.2-1.5-7.6-2.8-10.3c-1.8-3.5-4.3-6.2-7.6-8.2c-3.3-2-6.8-3-10.6-3
		c-6.6,0-12.2,2.4-16.9,7.3C321,301.7,318.7,308.5,318.7,317.3 M286.3,343.5h27.2v-2.7c-2.1-0.5-3.5-1.2-4.3-2
		c-0.8-0.8-1.2-2.4-1.2-5v-67.5h-21.6v2.7c2.1,0.5,3.6,1.1,4.3,1.9c0.8,0.8,1.2,2.3,1.2,4.8v58.1c0,2.5-0.4,4.2-1.3,5
		c-0.8,0.8-2.3,1.4-4.3,1.9V343.5z M252.2,311.2c0.1-5.9,0.8-10.4,1.9-13.5c1.1-3.1,3.1-4.6,6.1-4.6c2.9,0,4.8,1.3,5.8,4
		c1,2.7,1.5,7.4,1.6,14.1H252.2z M236.3,317.3c0,9.7,2.5,16.8,7.4,21.2c4.9,4.4,10.2,6.6,15.8,6.6c3.9,0,7.4-0.7,10.4-2.2
		c4.7-2.3,8.7-6.3,12.3-12.1l-2.6-1.6c-2.2,2.4-4,4.1-5.4,5.1c-2.4,1.7-4.9,2.5-7.6,2.5c-5.6,0-9.6-3.1-11.8-9.4
		c-1.2-3.3-2-7.3-2.2-11.9h29.2c0-1-0.1-2.5-0.4-4.5c-0.5-4.2-1.5-7.6-2.8-10.3c-1.8-3.5-4.3-6.2-7.6-8.2c-3.3-2-6.8-3-10.6-3
		c-6.6,0-12.2,2.4-16.9,7.3C238.6,301.7,236.3,308.5,236.3,317.3 M174.3,345.1h3.3c0.3-1.3,0.7-2.2,1.2-2.9c0.4-0.7,1.2-1,2.4-1
		c0.3,0,0.7,0,1.2,0.1c0.5,0.1,1,0.2,1.5,0.4l2.2,0.8c2.3,0.9,4.6,1.6,6.9,2s4.6,0.6,6.9,0.6c9.9,0,17-2.6,21.5-7.7
		c4.5-5.1,6.7-10.5,6.7-16.3c0-6.2-2.1-11.4-6.3-15.7c-2.2-2.3-5.2-4.4-9-6.3l-8.4-4.2c-7-3.5-11.6-6.2-13.6-8
		c-2.1-1.8-3.1-4.5-3.1-8.1c0-3,1.1-5.6,3.3-7.7c2.2-2.1,5.2-3.2,9-3.2c5.4,0,9.9,2.1,13.7,6.2c3.8,4.2,6.4,9.1,7.9,14.9h3.2v-24.9
		h-3.4c-0.3,1.2-0.7,2.1-1.2,2.9c-0.5,0.7-1.3,1.1-2.6,1.1c-0.5,0-2.8-0.6-6.6-1.9c-3.9-1.3-7.8-1.9-12-1.9
		c-8.1,0-14.1,2.4-18.1,7.3c-3.9,4.8-5.9,10-5.9,15.6c0,5.2,1.5,9.6,4.4,13.2c3,3.6,8.1,7.2,15.3,10.8l7.3,3.7
		c4.5,2.3,7.5,4.1,9,5.5c2.2,2.2,3.4,4.9,3.4,8.4c0,2.9-1.1,5.7-3.2,8.4c-2.1,2.7-5.8,4-10.8,4c-5.2,0-9.9-1.9-13.9-5.8
		c-4.1-3.9-7-10.1-8.8-18.6h-3.3V345.1z M140.4,343.5h27.2v-2.7c-2-0.4-3.4-1-4.2-1.7s-1.1-2.3-1.1-4.8v-43.4h-21.9v2.7
		c2.3,0.4,3.8,1,4.6,1.9c0.8,0.8,1.2,2.4,1.2,4.8v33.6c0,2.6-0.6,4.4-1.7,5.4c-0.7,0.7-2.1,1.2-4.1,1.5V343.5z M145.4,273.5
		c0,2.5,0.9,4.5,2.6,6.3c1.7,1.7,3.8,2.6,6.3,2.6c2.4,0,4.5-0.9,6.2-2.6c1.7-1.7,2.6-3.8,2.6-6.3c0-2.5-0.9-4.5-2.6-6.3
		c-1.7-1.7-3.8-2.6-6.2-2.6c-2.5,0-4.5,0.9-6.3,2.6C146.3,268.9,145.4,271,145.4,273.5"/>
</g>
</svg>
